PathFileType	4	(X/Y/Z)	/Users/itak/Documents/Research/Walk-IL/dataset/trc/00197_00008.trc
DataRate	CameraRate	NumFrames	NumMarkers	Units	OrigDataRate	OrigDataStartFrame	OrigNumFrames
100.000000	100.000000	4	53	mm	100.000000	283	755
Frame#	Time	RPSI			LPSI			L3			STRN			T10			C7			CLAV			RBAK			LBAK			LSHO			LUPA			LAEL			LAOL			LWTS			LWPS			LFRA			LIFD			LHPS			LHTS			RSHO			RUPA			RAEL			RAOL			RWTS			RWPS			RFRA			RIFD			RHTS			RHPS			RBHD			LFHD			RFHD			LBHD			LHIP			RHIP			RASI			LASI			LKNE			LTHI			LANK			LTIP			LTOE			LMT1			LMT5			LHEE			RKNE			RTHI			RANK			RTIP			RTOE			RMT1			RMT5			RHEE			
		X1	Y1	Z1	X2	Y2	Z2	X3	Y3	Z3	X4	Y4	Z4	X5	Y5	Z5	X6	Y6	Z6	X7	Y7	Z7	X8	Y8	Z8	X9	Y9	Z9	X10	Y10	Z10	X11	Y11	Z11	X12	Y12	Z12	X13	Y13	Z13	X14	Y14	Z14	X15	Y15	Z15	X16	Y16	Z16	X17	Y17	Z17	X18	Y18	Z18	X19	Y19	Z19	X20	Y20	Z20	X21	Y21	Z21	X22	Y22	Z22	X23	Y23	Z23	X24	Y24	Z24	X25	Y25	Z25	X26	Y26	Z26	X27	Y27	Z27	X28	Y28	Z28	X29	Y29	Z29	X30	Y30	Z30	X31	Y31	Z31	X32	Y32	Z32	X33	Y33	Z33	X34	Y34	Z34	X35	Y35	Z35	X36	Y36	Z36	X37	Y37	Z37	X38	Y38	Z38	X39	Y39	Z39	X40	Y40	Z40	X41	Y41	Z41	X42	Y42	Z42	X43	Y43	Z43	X44	Y44	Z44	X45	Y45	Z45	X46	Y46	Z46	X47	Y47	Z47	X48	Y48	Z48	X49	Y49	Z49	X50	Y50	Z50	X51	Y51	Z51	X52	Y52	Z52	X53	Y53	Z53	

284	2.83	-679.9086303710938	1035.249633789062	54.64310073852539	-802.7736206054688	1045.110717773438	43.15242385864258	-736.927001953125	1078.697265625	49.10044860839844	-697.7086791992188	1289.576171875	-207.7841949462891	-742.102783203125	1238.707641601562	86.64351654052734	-727.3951416015625	1508.27490234375	19.28990936279297	-701.65576171875	1403.470336914062	-179.6297454833984	-642.7764892578125	1325.869750976562	101.5968322753906	-826.8439331054688	1491.539306640625	13.75302791595459	-894.9257202148438	1485.027099609375	-73.20538330078125	-976.2164306640625	1356.837524414062	-46.01016616821289	-1007.001953125	1143.468017578125	-60.29248428344727	-933.3208618164062	1121.567749023438	-17.15613746643066	-1000.830139160156	916.6090698242188	-184.4247131347656	-1037.001098632812	893.9827270507812	-101.0246200561523	-1029.202514648438	1035.009399414062	-78.21783447265625	-984.5711669921875	733.4249267578125	-202.9497680664062	-1037.9287109375	825.304443359375	-125.3863983154297	-1024.989990234375	838.1792602539062	-196.4564514160156	-541.8431396484375	1472.692749023438	-14.73254489898682	-485.5734558105469	1403.0419921875	20.7230339050293	-458.424560546875	1115.357543945312	68.93438720703125	-552.5709228515625	1115.537475585938	48.46307754516602	-438.5014343261719	895.1611328125	-80.66471099853516	-426.0208740234375	870.2846069335938	4.505488395690918	-436.9613647460938	1041.354736328125	48.5966682434082	-468.6022644042969	711.4954223632812	-118.5511093139648	-426.1858825683594	801.9044189453125	-108.6316223144531	-423.7743225097656	789.2152099609375	-28.89618110656738	-641.5799560546875	1644.950561523438	-7.485388278961182	-691.6834716796875	1734.201904296875	-200.7853546142578	-573.2916870117188	1708.944458007812	-155.0049591064453	-768.244140625	1678.556518554688	-46.41400527954102	-916.6532592773438	995.5956420898438	-66.81398010253906	-551.5143432617188	983.63232421875	-92.49845886230469	-594.8756713867188	1021.635070800781	-175.9858093261719	-853.1970825195312	1035.397338867188	-188.066650390625	-972.2868041992188	502.7693481445312	-180.4556732177734	-966.1431274414062	649.8374633789062	-157.4671936035156	-972.14013671875	237.9702453613281	230.6790313720703	-989.114990234375	366.5160522460938	6.832772731781006	-961.7576904296875	69.04114532470703	100.630744934082	-912.6785888671875	112.3082809448242	117.6462631225586	-1007.304016113281	136.0666656494141	191.6981201171875	-903.4549560546875	286.1116027832031	242.589111328125	-658.1742553710938	497.8521728515625	-201.9486541748047	-568.7186279296875	760.6229248046875	-179.9717864990234	-787.6605834960938	35.46558380126953	-141.8603973388672	-694.98974609375	380.7782897949219	-225.1285400390625	-720.685302734375	41.64400863647461	-357.0543212890625	-785.7901000976562	41.03839874267578	-327.7031555175781	-707.2103271484375	39.36090087890625	-228.1541137695312	-868.6371459960938	35.02874374389648	-124.4738693237305	
285	2.84	-679.2426147460938	1036.038208007812	47.93692398071289	-802.023193359375	1045.6630859375	34.48382568359375	-736.0508422851562	1079.288452148438	41.33914947509766	-693.6629638671875	1290.449462890625	-215.0561828613281	-741.044189453125	1239.545166015625	78.87129974365234	-725.6741333007812	1509.076538085938	11.49999904632568	-698.0836181640625	1404.39404296875	-187.1046142578125	-641.6657104492188	1326.84521484375	94.55416107177734	-825.0140991210938	1492.257446289062	5.094033241271973	-892.4181518554688	1485.632446289062	-82.37047576904297	-973.548095703125	1357.14794921875	-55.62118530273438	-1002.48681640625	1143.265869140625	-69.70663452148438	-929.0217895507812	1122.09375	-25.89846229553223	-993.9114379882812	916.5707397460938	-193.611083984375	-1030.069458007812	893.4344482421875	-110.3523712158203	-1023.71533203125	1034.614501953125	-87.67034149169922	-977.2024536132812	733.1488647460938	-213.3488922119141	-1030.3486328125	824.7788696289062	-134.9294586181641	-1017.478698730469	838.10498046875	-205.9275207519531	-539.8273315429688	1473.88623046875	-20.83331108093262	-483.638671875	1404.184448242188	14.84409141540527	-456.0843200683594	1115.998901367188	61.35880279541016	-550.1742553710938	1116.247192382812	40.63319396972656	-436.0104064941406	898.0269165039062	-91.53388214111328	-423.6049499511719	871.7708740234375	-6.758785247802734	-434.5998840332031	1042.133544921875	40.07317352294922	-466.0352783203125	715.005859375	-132.4588928222656	-423.5957336425781	805.3058471679688	-120.9896087646484	-421.2998352050781	791.2752075195312	-41.48362350463867	-639.570068359375	1645.822631835938	-14.81698131561279	-688.539794921875	1734.903686523438	-208.5054779052734	-570.4237670898438	1709.843383789062	-161.9212951660156	-766.0494384765625	1679.223999023438	-54.60758972167969	-912.4652099609375	995.3988647460938	-80.06439971923828	-548.417724609375	983.7332763671875	-97.05370330810547	-589.8878784179688	1022.333312988281	-181.3919067382812	-848.1907958984375	1036.569091796875	-197.6363983154297	-965.9686279296875	504.9984130859375	-203.0730590820312	-961.0302734375	651.6091918945312	-176.6673583984375	-975.9845581054688	234.5118713378906	204.2527465820312	-987.2118530273438	366.5685424804688	-18.14349555969238	-961.1463012695312	69.27196502685547	69.95426177978516	-912.7587280273438	112.0287551879883	89.68442535400391	-1009.425720214844	133.5680236816406	161.5506286621094	-907.821533203125	282.6023254394531	219.2995452880859	-656.7421875	497.3225402832031	-203.4435119628906	-565.6475219726562	760.1748046875	-183.908935546875	-787.7531127929688	35.42129898071289	-141.8902893066406	-693.9951782226562	380.310791015625	-226.2040710449219	-720.6294555664062	41.59299468994141	-357.0809936523438	-785.7435913085938	41.04884338378906	-327.7178344726562	-707.0942993164062	39.24784851074219	-228.0973510742188	-868.6058349609375	35.14999771118164	-124.4738235473633	
286	2.85	-678.6813354492188	1036.910522460938	41.31598663330078	-801.2786254882812	1046.162719726562	25.86725807189941	-735.2406005859375	1079.831665039062	33.66034317016602	-689.5206909179688	1291.265625	-222.2173309326172	-740.0540771484375	1240.319213867188	71.20287322998047	-723.9473876953125	1509.828247070312	3.795446634292603	-694.4303588867188	1405.256469726562	-194.4714813232422	-640.5927734375	1327.762329101562	87.62073516845703	-823.1529541015625	1492.938720703125	-3.516366958618164	-889.8463745117188	1486.213623046875	-91.524169921875	-970.8653564453125	1357.477172851562	-65.21421813964844	-998.0490112304688	1143.08984375	-78.99361419677734	-924.8079223632812	1122.622924804688	-34.53613662719727	-987.278076171875	916.6748046875	-202.7837829589844	-1023.169982910156	892.9029541015625	-119.5974044799805	-1018.323669433594	1034.253662109375	-96.98785400390625	-970.151611328125	733.0335083007812	-224.1435089111328	-1022.779418945312	824.28173828125	-144.462646484375	-1010.239624023438	838.1941528320312	-215.4117889404297	-537.8092651367188	1475.036254882812	-26.77948379516602	-481.7080993652344	1405.277954101562	9.13177490234375	-453.7671813964844	1116.584106445312	53.85796356201172	-547.8180541992188	1116.90087890625	32.87421798706055	-433.507568359375	900.873046875	-102.2679290771484	-421.2056274414062	873.2481689453125	-17.91122436523438	-432.2643127441406	1042.869750976562	31.62983512878418	-463.4965515136719	718.5423583984375	-146.1851501464844	-421.0280456542969	808.6805419921875	-133.1859283447266	-418.8592224121094	793.346923828125	-53.93262481689453	-637.5126342773438	1646.677612304688	-22.08406829833984	-685.3809814453125	1735.532836914062	-216.1749572753906	-567.5449829101562	1710.68359375	-168.8072357177734	-763.804443359375	1679.8662109375	-62.72302627563477	-908.6498413085938	995.4854736328125	-92.68540954589844	-545.2730712890625	983.8378295898438	-101.4012756347656	-584.8570556640625	1022.897888183594	-186.5577545166016	-843.06298828125	1037.672729492188	-207.1416320800781	-958.8050537109375	507.3611755371094	-225.2963409423828	-955.3364868164062	653.460205078125	-195.6883544921875	-979.5633544921875	229.9615936279297	177.0050659179688	-984.70751953125	366.22607421875	-43.23091125488281	-960.336181640625	69.00035095214844	38.11574172973633	-912.6439819335938	111.0033798217773	60.7458381652832	-1011.366638183594	130.3600311279297	130.2368469238281	-911.9835205078125	277.7354736328125	195.4402923583984	-655.2955322265625	496.8013916015625	-204.6617431640625	-562.4830932617188	759.7952270507812	-187.6373901367188	-787.83935546875	35.36482620239258	-141.9083099365234	-693.0281982421875	379.867919921875	-227.0813598632812	-720.6009521484375	41.55004119873047	-357.1025085449219	-785.6997680664062	41.06398010253906	-327.7196044921875	-706.975830078125	39.14274597167969	-228.0299072265625	-868.5487670898438	35.28747940063477	-124.4537963867188	
287	2.86	-678.2020263671875	1037.8408203125	34.73406219482422	-800.5188598632812	1046.614013671875	17.29133605957031	-734.4769287109375	1080.33349609375	26.05592727661133	-685.2905883789062	1291.997802734375	-229.2838287353516	-739.0982055664062	1241.018432617188	63.61351776123047	-722.2024536132812	1510.5224609375	-3.840349912643433	-690.6975708007812	1406.033081054688	-201.7467803955078	-639.5293579101562	1328.610107421875	80.78720855712891	-821.2487182617188	1493.569946289062	-12.08842849731445	-887.2091064453125	1486.746704101562	-100.6800003051758	-968.1588134765625	1357.795166015625	-74.80332946777344	-993.7039794921875	1142.916259765625	-88.18136596679688	-920.6886596679688	1123.133056640625	-43.09445571899414	-980.9326782226562	916.8785400390625	-211.9644470214844	-1016.339965820312	892.3712158203125	-128.7914733886719	-1013.04296875	1033.903198242188	-106.1989440917969	-963.4328002929688	733.0462036132812	-235.2794952392578	-1015.261413574219	823.7955322265625	-154.0039978027344	-1003.276611328125	838.399658203125	-224.9236145019531	-535.7767333984375	1476.121704101562	-32.60398864746094	-479.7679138183594	1406.302856445312	3.560048580169678	-451.4595642089844	1117.09326171875	46.44230270385742	-545.4805908203125	1117.477294921875	25.19916534423828	-430.995849609375	903.6743774414062	-112.8535385131836	-418.8141174316406	874.693603515625	-28.93787002563477	-429.9443359375	1043.54248046875	23.28162956237793	-460.9787292480469	722.0836791992188	-159.7290802001953	-418.480224609375	812.0062255859375	-145.2119903564453	-416.450439453125	795.4015502929688	-66.23430633544922	-635.4024658203125	1647.490356445312	-29.29274749755859	-682.2168579101562	1736.090454101562	-223.7813415527344	-564.6552124023438	1711.465454101562	-175.6663970947266	-761.5049438476562	1680.456909179688	-70.751708984375	-905.3195190429688	995.9005126953125	-104.4405212402344	-542.0870361328125	983.9657592773438	-105.5940170288086	-579.8543701171875	1023.32373046875	-191.5095520019531	-837.8607177734375	1038.718994140625	-216.5831909179688	-950.820068359375	509.8282470703125	-247.0714721679688	-949.0588989257812	655.3756103515625	-214.4792327880859	-982.75048828125	224.3699951171875	148.9509887695312	-981.5714111328125	365.49658203125	-68.39000701904297	-959.2890625	68.3399658203125	5.159306049346924	-912.305908203125	109.3185577392578	30.82109069824219	-1013.079284667969	126.5727615356445	97.78740692138672	-915.8424072265625	271.5457763671875	170.9806365966797	-653.8365478515625	496.2895812988281	-205.6185455322266	-559.2589111328125	759.4505615234375	-191.147705078125	-787.908447265625	35.30258178710938	-141.9124603271484	-692.084716796875	379.4517211914062	-227.7703094482422	-720.60009765625	41.50900268554688	-357.1213073730469	-785.6583251953125	41.08126831054688	-327.7117309570312	-706.8538818359375	39.04326248168945	-227.9533386230469	-868.4610595703125	35.44704437255859	-124.4086456298828	
